<mxfile host="app.diagrams.net" modified="2020-08-16T18:02:53.006Z" agent="5.0 (Macintosh; Intel Mac OS X 10_15_5) AppleWebKit/537.36 (KHTML, like Gecko) Chrome/84.0.4147.105 Safari/537.36" etag="tg8RaHmUZYe5MaxEA_TX" version="13.6.2" type="github">
  <diagram name="Page-1" id="03018318-947c-dd8e-b7a3-06fadd420f32">
    <mxGraphModel dx="2183" dy="1108" grid="1" gridSize="10" guides="1" tooltips="1" connect="1" arrows="1" fold="1" page="1" pageScale="1" pageWidth="1100" pageHeight="850" background="#ffffff" math="0" shadow="0">
      <root>
        <mxCell id="0" />
        <mxCell id="1" parent="0" />
        <mxCell id="677b7b8949515195-1" value="" style="whiteSpace=wrap;html=1;rounded=0;shadow=0;labelBackgroundColor=none;strokeWidth=1;fontFamily=Verdana;fontSize=12;align=center;comic=1;" parent="1" vertex="1">
          <mxGeometry y="10" width="1080" height="840" as="geometry" />
        </mxCell>
        <mxCell id="677b7b8949515195-2" value="Calorie Tracker" style="whiteSpace=wrap;html=1;rounded=0;shadow=0;labelBackgroundColor=none;strokeWidth=1;fontFamily=Verdana;fontSize=28;align=center;comic=1;" parent="1" vertex="1">
          <mxGeometry x="350" y="60" width="350" height="50" as="geometry" />
        </mxCell>
        <mxCell id="677b7b8949515195-3" value="French fries" style="strokeWidth=1;shadow=0;dashed=0;align=center;html=1;shape=mxgraph.mockup.forms.searchBox;strokeColor=#999999;mainText=;strokeColor2=#008cff;fontColor=#666666;fontSize=17;align=left;spacingLeft=3;rounded=0;labelBackgroundColor=none;comic=1;" parent="1" vertex="1">
          <mxGeometry x="270" y="250" width="460" height="50" as="geometry" />
        </mxCell>
        <mxCell id="677b7b8949515195-5" value="&lt;span style=&quot;font-size: 18px&quot;&gt;Login&lt;/span&gt;" style="text;html=1;points=[];align=left;verticalAlign=top;spacingTop=-4;fontSize=14;fontFamily=Verdana" parent="1" vertex="1">
          <mxGeometry x="890" y="40" width="90" height="30" as="geometry" />
        </mxCell>
        <mxCell id="677b7b8949515195-6" value="&lt;font style=&quot;font-size: 18px&quot;&gt;Sign up&lt;/font&gt;" style="text;html=1;points=[];align=left;verticalAlign=top;spacingTop=-4;fontSize=14;fontFamily=Verdana" parent="1" vertex="1">
          <mxGeometry x="970" y="40" width="70" height="40" as="geometry" />
        </mxCell>
        <mxCell id="677b7b8949515195-9" value="" style="line;strokeWidth=1;html=1;rounded=0;shadow=0;labelBackgroundColor=none;fillColor=none;fontFamily=Verdana;fontSize=14;fontColor=#000000;align=center;comic=1;" parent="1" vertex="1">
          <mxGeometry x="20" y="140" width="1060" height="10" as="geometry" />
        </mxCell>
        <mxCell id="677b7b8949515195-10" value="" style="whiteSpace=wrap;html=1;rounded=0;shadow=0;labelBackgroundColor=none;strokeWidth=1;fillColor=none;fontFamily=Verdana;fontSize=12;align=center;comic=1;" parent="1" vertex="1">
          <mxGeometry x="15" y="160" width="1040" height="50" as="geometry" />
        </mxCell>
        <mxCell id="677b7b8949515195-11" value="Calorie Diary" style="text;html=1;points=[];align=left;verticalAlign=top;spacingTop=-4;fontSize=14;fontFamily=Verdana" parent="1" vertex="1">
          <mxGeometry x="590" y="173.75" width="100" height="30" as="geometry" />
        </mxCell>
        <mxCell id="677b7b8949515195-13" value="Daily tracker&lt;br&gt;" style="text;html=1;points=[];align=left;verticalAlign=top;spacingTop=-4;fontSize=14;fontFamily=Verdana" parent="1" vertex="1">
          <mxGeometry x="360" y="173.75" width="97" height="25" as="geometry" />
        </mxCell>
        <mxCell id="677b7b8949515195-14" value="Home" style="text;html=1;points=[];align=center;verticalAlign=top;spacingTop=-4;fontSize=14;fontFamily=Verdana;fillColor=#f8cecc;strokeColor=#b85450;" parent="1" vertex="1">
          <mxGeometry x="160" y="172.5" width="80" height="27.5" as="geometry" />
        </mxCell>
        <mxCell id="677b7b8949515195-25" value="" style="whiteSpace=wrap;html=1;rounded=0;shadow=0;labelBackgroundColor=none;strokeWidth=1;fontFamily=Verdana;fontSize=12;align=center;comic=1;" parent="1" vertex="1">
          <mxGeometry x="140" y="700" width="220" height="150" as="geometry" />
        </mxCell>
        <mxCell id="677b7b8949515195-26" value="" style="whiteSpace=wrap;html=1;rounded=0;shadow=0;labelBackgroundColor=none;strokeWidth=1;fontFamily=Verdana;fontSize=12;align=center;comic=1;" parent="1" vertex="1">
          <mxGeometry x="690" y="427.5" width="230" height="160" as="geometry" />
        </mxCell>
        <mxCell id="677b7b8949515195-42" value="&lt;font style=&quot;font-size: 16px&quot;&gt;French fries 100kcal&lt;/font&gt;&lt;br&gt;Protein: 2g &lt;br&gt;Fat: 4g&lt;br&gt;carbs: 23g" style="text;html=1;points=[];align=left;verticalAlign=top;spacingTop=-4;fontSize=14;fontFamily=Verdana" parent="1" vertex="1">
          <mxGeometry x="140" y="600" width="160" height="70" as="geometry" />
        </mxCell>
        <mxCell id="677b7b8949515195-48" value="Here are search results for &quot; &quot;" style="text;html=1;points=[];align=left;verticalAlign=top;spacingTop=-4;fontSize=14;fontFamily=Verdana" parent="1" vertex="1">
          <mxGeometry x="387.5" y="380" width="250" height="30" as="geometry" />
        </mxCell>
        <mxCell id="iOdEwq1WsNc-iahHYhRR-1" value="&lt;font style=&quot;font-size: 18px&quot;&gt;Search&lt;/font&gt;" style="rounded=1;whiteSpace=wrap;html=1;" parent="1" vertex="1">
          <mxGeometry x="750" y="260" width="100" height="40" as="geometry" />
        </mxCell>
        <mxCell id="iOdEwq1WsNc-iahHYhRR-2" value="" style="whiteSpace=wrap;html=1;rounded=0;shadow=0;labelBackgroundColor=none;strokeWidth=1;fontFamily=Verdana;fontSize=12;align=center;comic=1;" parent="1" vertex="1">
          <mxGeometry x="420" y="425" width="220" height="165" as="geometry" />
        </mxCell>
        <mxCell id="iOdEwq1WsNc-iahHYhRR-3" value="" style="rounded=0;whiteSpace=wrap;html=1;" parent="1" vertex="1">
          <mxGeometry x="412.5" y="700" width="225" height="150" as="geometry" />
        </mxCell>
        <mxCell id="iOdEwq1WsNc-iahHYhRR-4" value="" style="rounded=0;whiteSpace=wrap;html=1;" parent="1" vertex="1">
          <mxGeometry x="690" y="700" width="235" height="150" as="geometry" />
        </mxCell>
        <mxCell id="iOdEwq1WsNc-iahHYhRR-6" value="&lt;div style=&quot;text-align: left ; font-size: 16px&quot;&gt;&lt;font style=&quot;font-size: 16px&quot;&gt;Crinkle cut french fries&lt;/font&gt;&lt;/div&gt;&lt;div style=&quot;text-align: left ; font-size: 16px&quot;&gt;&lt;font style=&quot;font-size: 16px&quot;&gt;150kcal&lt;/font&gt;&lt;/div&gt;&lt;font style=&quot;font-size: 14px&quot;&gt;&lt;div style=&quot;text-align: left&quot;&gt;&lt;span&gt;protein: 2g&lt;/span&gt;&lt;/div&gt;&lt;div style=&quot;text-align: left&quot;&gt;&lt;span&gt;Fat: 4g&lt;/span&gt;&lt;/div&gt;&lt;div style=&quot;text-align: left&quot;&gt;&lt;span&gt;Carbs: 23g&lt;/span&gt;&lt;/div&gt;&lt;/font&gt;" style="text;html=1;strokeColor=none;fillColor=none;align=center;verticalAlign=middle;whiteSpace=wrap;rounded=0;fontFamily=Verdana;" parent="1" vertex="1">
          <mxGeometry x="421" y="601.25" width="167.5" height="83.75" as="geometry" />
        </mxCell>
        <mxCell id="iOdEwq1WsNc-iahHYhRR-7" value="The Kroger Co. French Fries 171Kcal&lt;br style=&quot;font-size: 14px&quot;&gt;&lt;font style=&quot;font-size: 14px&quot;&gt;&lt;font style=&quot;font-size: 14px&quot;&gt;Protein&lt;/font&gt;: 1g&lt;br&gt;Fat 13g&lt;br&gt;Carbs:12g&lt;/font&gt;" style="text;html=1;strokeColor=none;fillColor=none;align=left;verticalAlign=middle;whiteSpace=wrap;rounded=0;fontFamily=Verdana;fontSize=16;" parent="1" vertex="1">
          <mxGeometry x="690" y="590" width="180" height="100" as="geometry" />
        </mxCell>
        <mxCell id="iOdEwq1WsNc-iahHYhRR-9" value="" style="rounded=0;whiteSpace=wrap;html=1;fontFamily=Verdana;fontSize=14;align=center;" parent="1" vertex="1">
          <mxGeometry x="140" y="425" width="230" height="165" as="geometry" />
        </mxCell>
        <mxCell id="iOdEwq1WsNc-iahHYhRR-10" value="&lt;font style=&quot;font-size: 12px ; font-weight: normal&quot;&gt;Add&lt;/font&gt;" style="strokeWidth=1;shadow=0;dashed=0;align=center;html=1;shape=mxgraph.mockup.buttons.button;strokeColor=#9673a6;mainText=;buttonStyle=round;fontSize=17;fontStyle=1;fillColor=#e1d5e7;whiteSpace=wrap;" parent="1" vertex="1">
          <mxGeometry x="310" y="601.25" width="50" height="22.5" as="geometry" />
        </mxCell>
        <mxCell id="iOdEwq1WsNc-iahHYhRR-11" value="&lt;font style=&quot;font-size: 12px ; font-weight: normal&quot;&gt;Add&lt;/font&gt;" style="strokeWidth=1;shadow=0;dashed=0;align=center;html=1;shape=mxgraph.mockup.buttons.button;strokeColor=#9673a6;mainText=;buttonStyle=round;fontSize=17;fontStyle=1;fillColor=#e1d5e7;whiteSpace=wrap;" parent="1" vertex="1">
          <mxGeometry x="587.5" y="600" width="50" height="22.5" as="geometry" />
        </mxCell>
        <mxCell id="iOdEwq1WsNc-iahHYhRR-13" value="&lt;font style=&quot;font-size: 12px ; font-weight: normal&quot;&gt;Add&lt;/font&gt;" style="strokeWidth=1;shadow=0;dashed=0;align=center;html=1;shape=mxgraph.mockup.buttons.button;strokeColor=#9673a6;mainText=;buttonStyle=round;fontSize=17;fontStyle=1;fillColor=#e1d5e7;whiteSpace=wrap;" parent="1" vertex="1">
          <mxGeometry x="870" y="600" width="50" height="22.5" as="geometry" />
        </mxCell>
        <mxCell id="iOdEwq1WsNc-iahHYhRR-16" value="" style="whiteSpace=wrap;html=1;rounded=0;shadow=0;labelBackgroundColor=none;strokeWidth=1;fontFamily=Verdana;fontSize=12;align=center;comic=1;" parent="1" vertex="1">
          <mxGeometry x="1092.5" y="890" width="1100" height="810" as="geometry" />
        </mxCell>
        <mxCell id="iOdEwq1WsNc-iahHYhRR-17" value="" style="whiteSpace=wrap;html=1;rounded=0;shadow=0;labelBackgroundColor=none;strokeWidth=1;fontFamily=Verdana;fontSize=12;align=center;comic=1;" parent="1" vertex="1">
          <mxGeometry y="1740" width="1085" height="810" as="geometry" />
        </mxCell>
        <mxCell id="iOdEwq1WsNc-iahHYhRR-18" value="&lt;span style=&quot;color: rgba(0 , 0 , 0 , 0) ; font-family: monospace ; font-size: 0px&quot;&gt;%3CmxGraphModel%3E%3Croot%3E%3CmxCell%20id%3D%220%22%2F%3E%3CmxCell%20id%3D%221%22%20parent%3D%220%22%2F%3E%3CmxCell%20id%3D%222%22%20value%3D%22Calorie%20Tracker%22%20style%3D%22whiteSpace%3Dwrap%3Bhtml%3D1%3Brounded%3D0%3Bshadow%3D0%3BlabelBackgroundColor%3Dnone%3BstrokeWidth%3D1%3BfontFamily%3DVerdana%3BfontSize%3D28%3Balign%3Dcenter%3Bcomic%3D1%3B%22%20vertex%3D%221%22%20parent%3D%221%22%3E%3CmxGeometry%20x%3D%22350%22%20y%3D%2250%22%20width%3D%22350%22%20height%3D%2250%22%20as%3D%22geometry%22%2F%3E%3C%2FmxCell%3E%3C%2Froot%3E%3C%2FmxGraphModel%3E&lt;/span&gt;" style="whiteSpace=wrap;html=1;rounded=0;shadow=0;labelBackgroundColor=none;strokeWidth=1;fontFamily=Verdana;fontSize=12;align=center;comic=1;" parent="1" vertex="1">
          <mxGeometry y="890" width="1085" height="810" as="geometry" />
        </mxCell>
        <mxCell id="iOdEwq1WsNc-iahHYhRR-20" value="" style="whiteSpace=wrap;html=1;rounded=0;shadow=0;labelBackgroundColor=none;strokeColor=#000000;strokeWidth=1;fillColor=none;fontFamily=Verdana;fontSize=12;fontColor=#000000;align=center;comic=1;" parent="1" vertex="1">
          <mxGeometry x="1100" y="10" width="1100" height="840" as="geometry" />
        </mxCell>
        <mxCell id="iOdEwq1WsNc-iahHYhRR-21" value="`" style="strokeWidth=1;shadow=0;dashed=0;align=center;html=1;shape=mxgraph.mockup.forms.rrect;rSize=0;fillColor=#ffffff;fontFamily=Verdana;fontSize=14;strokeColor=none;" parent="1" vertex="1">
          <mxGeometry x="1100" y="10" width="1100" height="840" as="geometry" />
        </mxCell>
        <mxCell id="iOdEwq1WsNc-iahHYhRR-23" value="" style="shape=line;strokeColor=#9673a6;strokeWidth=2;html=1;resizeWidth=1;fillColor=#e1d5e7;" parent="iOdEwq1WsNc-iahHYhRR-21" vertex="1">
          <mxGeometry width="990" height="10" relative="1" as="geometry">
            <mxPoint x="40" y="30" as="offset" />
          </mxGeometry>
        </mxCell>
        <mxCell id="iOdEwq1WsNc-iahHYhRR-24" value="User Name:" style="strokeWidth=1;shadow=0;dashed=0;align=center;html=1;shape=mxgraph.mockup.forms.anchor;fontSize=12;fontColor=#666666;align=left;resizeWidth=1;spacingLeft=0;strokeColor=none;" parent="iOdEwq1WsNc-iahHYhRR-21" vertex="1">
          <mxGeometry width="70" height="20" relative="1" as="geometry">
            <mxPoint x="190" y="260" as="offset" />
          </mxGeometry>
        </mxCell>
        <mxCell id="iOdEwq1WsNc-iahHYhRR-25" value="johndoe" style="strokeWidth=1;shadow=0;dashed=0;align=center;html=1;shape=mxgraph.mockup.forms.rrect;rSize=0;strokeColor=#999999;fontColor=#666666;align=left;spacingLeft=5;resizeWidth=1;" parent="iOdEwq1WsNc-iahHYhRR-21" vertex="1">
          <mxGeometry width="510" height="40" relative="1" as="geometry">
            <mxPoint x="270" y="250" as="offset" />
          </mxGeometry>
        </mxCell>
        <mxCell id="iOdEwq1WsNc-iahHYhRR-26" value="Password:" style="strokeWidth=1;shadow=0;dashed=0;align=center;html=1;shape=mxgraph.mockup.forms.anchor;fontSize=12;fontColor=#666666;align=left;resizeWidth=1;spacingLeft=0;strokeColor=none;" parent="iOdEwq1WsNc-iahHYhRR-21" vertex="1">
          <mxGeometry width="70" height="20" relative="1" as="geometry">
            <mxPoint x="200" y="320" as="offset" />
          </mxGeometry>
        </mxCell>
        <mxCell id="iOdEwq1WsNc-iahHYhRR-27" value="********" style="strokeWidth=1;shadow=0;dashed=0;align=center;html=1;shape=mxgraph.mockup.forms.rrect;rSize=0;strokeColor=#999999;fontColor=#666666;align=left;spacingLeft=5;resizeWidth=1;" parent="iOdEwq1WsNc-iahHYhRR-21" vertex="1">
          <mxGeometry width="510" height="40" relative="1" as="geometry">
            <mxPoint x="270" y="310" as="offset" />
          </mxGeometry>
        </mxCell>
        <mxCell id="iOdEwq1WsNc-iahHYhRR-28" value="SIGN IN" style="strokeWidth=1;shadow=0;dashed=0;align=center;html=1;shape=mxgraph.mockup.forms.rrect;rSize=5;strokeColor=#9673a6;fillColor=#e1d5e7;fontSize=16;fontStyle=1;" parent="iOdEwq1WsNc-iahHYhRR-21" vertex="1">
          <mxGeometry y="1" width="500" height="39" relative="1" as="geometry">
            <mxPoint x="270" y="-470" as="offset" />
          </mxGeometry>
        </mxCell>
        <mxCell id="iOdEwq1WsNc-iahHYhRR-30" value="" style="shape=line;strokeColor=#9673a6;strokeWidth=2;html=1;resizeWidth=1;fillColor=#e1d5e7;" parent="iOdEwq1WsNc-iahHYhRR-21" vertex="1">
          <mxGeometry y="1" width="990" height="11" relative="1" as="geometry">
            <mxPoint x="60" y="-91" as="offset" />
          </mxGeometry>
        </mxCell>
        <mxCell id="iOdEwq1WsNc-iahHYhRR-31" value="&lt;font style=&quot;font-size: 13px&quot;&gt;Sign up for Calorie Tracker&lt;/font&gt;" style="strokeWidth=1;shadow=0;dashed=0;align=center;html=1;shape=mxgraph.mockup.forms.anchor;fontSize=12;fontColor=#666666;align=left;spacingLeft=0;resizeWidth=1;strokeColor=none;" parent="iOdEwq1WsNc-iahHYhRR-21" vertex="1">
          <mxGeometry y="1" width="200" height="49" relative="1" as="geometry">
            <mxPoint x="450" y="-425" as="offset" />
          </mxGeometry>
        </mxCell>
        <mxCell id="iOdEwq1WsNc-iahHYhRR-33" value="" style="whiteSpace=wrap;html=1;rounded=0;shadow=0;labelBackgroundColor=none;strokeWidth=1;fillColor=none;fontFamily=Verdana;fontSize=12;align=center;comic=1;" parent="1" vertex="1">
          <mxGeometry x="30" y="1070" width="1040" height="50" as="geometry" />
        </mxCell>
        <mxCell id="iOdEwq1WsNc-iahHYhRR-34" value="" style="whiteSpace=wrap;html=1;rounded=0;shadow=0;labelBackgroundColor=none;strokeWidth=1;fillColor=none;fontFamily=Verdana;fontSize=12;align=center;comic=1;" parent="1" vertex="1">
          <mxGeometry x="1120" y="1070" width="1040" height="50" as="geometry" />
        </mxCell>
        <mxCell id="iOdEwq1WsNc-iahHYhRR-35" value="" style="line;strokeWidth=1;html=1;rounded=0;shadow=0;labelBackgroundColor=none;fillColor=none;fontFamily=Verdana;fontSize=14;fontColor=#000000;align=center;comic=1;" parent="1" vertex="1">
          <mxGeometry x="15" y="1030" width="1060" height="10" as="geometry" />
        </mxCell>
        <mxCell id="iOdEwq1WsNc-iahHYhRR-36" value="" style="line;strokeWidth=1;html=1;rounded=0;shadow=0;labelBackgroundColor=none;fillColor=none;fontFamily=Verdana;fontSize=14;fontColor=#000000;align=center;comic=1;" parent="1" vertex="1">
          <mxGeometry x="1120" y="1030" width="1060" height="10" as="geometry" />
        </mxCell>
        <mxCell id="iOdEwq1WsNc-iahHYhRR-37" value="Calorie Tracker" style="whiteSpace=wrap;html=1;rounded=0;shadow=0;labelBackgroundColor=none;strokeWidth=1;fontFamily=Verdana;fontSize=28;align=center;comic=1;" parent="1" vertex="1">
          <mxGeometry x="355" y="950" width="350" height="50" as="geometry" />
        </mxCell>
        <mxCell id="iOdEwq1WsNc-iahHYhRR-38" value="Calorie Tracker" style="whiteSpace=wrap;html=1;rounded=0;shadow=0;labelBackgroundColor=none;strokeWidth=1;fontFamily=Verdana;fontSize=28;align=center;comic=1;" parent="1" vertex="1">
          <mxGeometry x="1490" y="950" width="350" height="50" as="geometry" />
        </mxCell>
        <mxCell id="iOdEwq1WsNc-iahHYhRR-42" value="Calorie Diary" style="text;html=1;points=[];align=left;verticalAlign=top;spacingTop=-4;fontSize=14;fontFamily=Verdana" parent="1" vertex="1">
          <mxGeometry x="1720" y="1082.5" width="100" height="30" as="geometry" />
        </mxCell>
        <mxCell id="iOdEwq1WsNc-iahHYhRR-43" value="Calorie Diary" style="text;html=1;points=[];align=left;verticalAlign=top;spacingTop=-4;fontSize=14;fontFamily=Verdana;fillColor=#f8cecc;strokeColor=#b85450;" parent="1" vertex="1">
          <mxGeometry x="575" y="1082.5" width="100" height="30" as="geometry" />
        </mxCell>
        <mxCell id="iOdEwq1WsNc-iahHYhRR-44" value="&lt;div style=&quot;text-align: center&quot;&gt;&lt;span&gt;Daily tracker&lt;/span&gt;&lt;/div&gt;" style="text;html=1;points=[];align=left;verticalAlign=top;spacingTop=-4;fontSize=14;fontFamily=Verdana;fillColor=#f8cecc;strokeColor=#b85450;" parent="1" vertex="1">
          <mxGeometry x="1430" y="1080" width="97" height="30" as="geometry" />
        </mxCell>
        <mxCell id="iOdEwq1WsNc-iahHYhRR-45" value="Daily tracker&lt;br&gt;" style="text;html=1;points=[];align=left;verticalAlign=top;spacingTop=-4;fontSize=14;fontFamily=Verdana" parent="1" vertex="1">
          <mxGeometry x="315.5" y="1085" width="97" height="25" as="geometry" />
        </mxCell>
        <mxCell id="iOdEwq1WsNc-iahHYhRR-46" value="Home" style="text;html=1;points=[];align=left;verticalAlign=top;spacingTop=-4;fontSize=14;fontFamily=Verdana" parent="1" vertex="1">
          <mxGeometry x="1240" y="1082.5" width="90" height="25" as="geometry" />
        </mxCell>
        <mxCell id="iOdEwq1WsNc-iahHYhRR-47" value="Home" style="text;html=1;points=[];align=left;verticalAlign=top;spacingTop=-4;fontSize=14;fontFamily=Verdana" parent="1" vertex="1">
          <mxGeometry x="140" y="1082.5" width="90" height="25" as="geometry" />
        </mxCell>
        <mxCell id="iOdEwq1WsNc-iahHYhRR-50" value="&lt;span style=&quot;color: rgba(0 , 0 , 0 , 0) ; font-family: monospace ; font-size: 0px&quot;&gt;%3CmxGraphModel%3E%3Croot%3E%3CmxCell%20id%3D%220%22%2F%3E%3CmxCell%20id%3D%221%22%20parent%3D%220%22%2F%3E%3CmxCell%20id%3D%222%22%20value%3D%22Ice%20Americano%22%20style%3D%22strokeWidth%3D1%3Bshadow%3D0%3Bdashed%3D0%3Balign%3Dcenter%3Bhtml%3D1%3Bshape%3Dmxgraph.mockup.forms.anchor%3BfontSize%3D17%3BfontColor%3D%23666666%3Balign%3Dleft%3BspacingLeft%3D5%3BresizeWidth%3D1%3B%22%20vertex%3D%221%22%20parent%3D%221%22%3E%3CmxGeometry%20x%3D%221480%22%20y%3D%221265%22%20width%3D%22380%22%20height%3D%2220%22%20as%3D%22geometry%22%2F%3E%3C%2FmxCell%3E%3C%2Froot%3E%3C%2FmxGraphModel%3E&lt;/span&gt;" style="strokeWidth=1;shadow=0;dashed=0;align=center;html=1;shape=mxgraph.mockup.forms.rrect;rSize=0;fontFamily=Verdana;fontSize=16;" parent="1" vertex="1">
          <mxGeometry x="1470" y="1160" width="420" height="510" as="geometry" />
        </mxCell>
        <mxCell id="iOdEwq1WsNc-iahHYhRR-51" value="Aug 18&amp;nbsp;" style="strokeWidth=1;shadow=0;dashed=0;align=center;html=1;shape=mxgraph.mockup.forms.rrect;rSize=0;fontSize=17;resizeWidth=1;" parent="iOdEwq1WsNc-iahHYhRR-50" vertex="1">
          <mxGeometry width="420" height="40" relative="1" as="geometry" />
        </mxCell>
        <mxCell id="iOdEwq1WsNc-iahHYhRR-52" value="French Fries" style="strokeWidth=1;shadow=0;dashed=0;align=center;html=1;shape=mxgraph.mockup.forms.anchor;fontSize=17;fontColor=#666666;align=left;spacingLeft=5;resizeWidth=1;strokeColor=none;" parent="iOdEwq1WsNc-iahHYhRR-50" vertex="1">
          <mxGeometry width="110" height="30" relative="1" as="geometry">
            <mxPoint y="60" as="offset" />
          </mxGeometry>
        </mxCell>
        <mxCell id="iOdEwq1WsNc-iahHYhRR-53" value="150 kcal" style="strokeWidth=1;shadow=0;dashed=0;align=center;html=1;shape=mxgraph.mockup.forms.anchor;fontSize=17;fontColor=#666666;align=left;spacingLeft=5;resizeWidth=1;strokeColor=none;" parent="iOdEwq1WsNc-iahHYhRR-50" vertex="1">
          <mxGeometry width="90" height="20" relative="1" as="geometry">
            <mxPoint x="310" y="60" as="offset" />
          </mxGeometry>
        </mxCell>
        <mxCell id="iOdEwq1WsNc-iahHYhRR-55" value="Ice Americano" style="strokeWidth=1;shadow=0;dashed=0;align=center;html=1;shape=mxgraph.mockup.forms.anchor;fontSize=17;fontColor=#666666;align=left;spacingLeft=5;resizeWidth=1;strokeColor=none;" parent="iOdEwq1WsNc-iahHYhRR-50" vertex="1">
          <mxGeometry width="380" height="20" relative="1" as="geometry">
            <mxPoint y="95" as="offset" />
          </mxGeometry>
        </mxCell>
        <mxCell id="iOdEwq1WsNc-iahHYhRR-116" value="90 kcal" style="strokeWidth=1;shadow=0;dashed=0;align=center;html=1;shape=mxgraph.mockup.forms.anchor;fontSize=17;fontColor=#666666;align=left;spacingLeft=5;resizeWidth=1;strokeColor=none;" parent="iOdEwq1WsNc-iahHYhRR-50" vertex="1">
          <mxGeometry x="320" y="90" width="80" height="25" as="geometry" />
        </mxCell>
        <mxCell id="iOdEwq1WsNc-iahHYhRR-117" value="Your total calories for the day : 230 kcal&lt;br&gt;&amp;nbsp;Recommended Calories : 1500kcal" style="strokeWidth=1;shadow=0;dashed=0;align=left;html=1;shape=mxgraph.mockup.forms.anchor;fontSize=17;fontColor=#666666;align=left;spacingLeft=5;resizeWidth=1;strokeColor=none;" parent="iOdEwq1WsNc-iahHYhRR-50" vertex="1">
          <mxGeometry x="40" y="360" width="330" height="70" as="geometry" />
        </mxCell>
        <mxCell id="iOdEwq1WsNc-iahHYhRR-56" style="edgeStyle=orthogonalEdgeStyle;rounded=0;orthogonalLoop=1;jettySize=auto;html=1;exitX=0;exitY=1;exitDx=0;exitDy=0;fontFamily=Verdana;fontSize=16;" parent="1" source="iOdEwq1WsNc-iahHYhRR-16" target="iOdEwq1WsNc-iahHYhRR-16" edge="1">
          <mxGeometry relative="1" as="geometry">
            <Array as="points">
              <mxPoint x="1140" y="1700" />
              <mxPoint x="1140" y="1700" />
            </Array>
          </mxGeometry>
        </mxCell>
        <mxCell id="iOdEwq1WsNc-iahHYhRR-58" value="t" style="strokeWidth=1;shadow=0;dashed=0;align=center;html=1;shape=mxgraph.mockup.forms.rrect;rSize=5;strokeColor=#999999;fillColor=#ffffff;fontFamily=Verdana;fontSize=16;" parent="1" vertex="1">
          <mxGeometry x="140" y="1170" width="860" height="480" as="geometry" />
        </mxCell>
        <mxCell id="iOdEwq1WsNc-iahHYhRR-59" value="October 2014" style="strokeWidth=1;shadow=0;dashed=0;align=center;html=1;shape=mxgraph.mockup.forms.anchor;fontColor=#999999;strokeColor=none;" parent="iOdEwq1WsNc-iahHYhRR-58" vertex="1">
          <mxGeometry x="161.25" y="21.94285714285714" width="537.5" height="54.857142857142854" as="geometry" />
        </mxCell>
        <mxCell id="iOdEwq1WsNc-iahHYhRR-60" value="&lt;" style="strokeWidth=1;shadow=0;dashed=0;align=center;html=1;shape=mxgraph.mockup.forms.rrect;rSize=4;strokeColor=#999999;fontColor=#008cff;fontSize=19;fontStyle=1;" parent="iOdEwq1WsNc-iahHYhRR-58" vertex="1">
          <mxGeometry x="43" y="21.94285714285714" width="134.375" height="54.857142857142854" as="geometry" />
        </mxCell>
        <mxCell id="iOdEwq1WsNc-iahHYhRR-61" value="&gt;" style="strokeWidth=1;shadow=0;dashed=0;align=center;html=1;shape=mxgraph.mockup.forms.rrect;rSize=4;strokeColor=#999999;fontColor=#008cff;fontSize=19;fontStyle=1;" parent="iOdEwq1WsNc-iahHYhRR-58" vertex="1">
          <mxGeometry x="682.625" y="21.94285714285714" width="134.375" height="54.857142857142854" as="geometry" />
        </mxCell>
        <mxCell id="iOdEwq1WsNc-iahHYhRR-62" value="Mo" style="strokeWidth=1;shadow=0;dashed=0;align=center;html=1;shape=mxgraph.mockup.forms.anchor;fontColor=#999999;" parent="iOdEwq1WsNc-iahHYhRR-58" vertex="1">
          <mxGeometry x="53.75" y="76.8" width="107.5" height="54.857142857142854" as="geometry" />
        </mxCell>
        <mxCell id="iOdEwq1WsNc-iahHYhRR-63" value="Tu" style="strokeWidth=1;shadow=0;dashed=0;align=center;html=1;shape=mxgraph.mockup.forms.anchor;fontColor=#999999;" parent="iOdEwq1WsNc-iahHYhRR-58" vertex="1">
          <mxGeometry x="161.25" y="76.8" width="107.5" height="54.857142857142854" as="geometry" />
        </mxCell>
        <mxCell id="iOdEwq1WsNc-iahHYhRR-64" value="We" style="strokeWidth=1;shadow=0;dashed=0;align=center;html=1;shape=mxgraph.mockup.forms.anchor;fontColor=#999999;" parent="iOdEwq1WsNc-iahHYhRR-58" vertex="1">
          <mxGeometry x="268.75" y="76.8" width="107.5" height="54.857142857142854" as="geometry" />
        </mxCell>
        <mxCell id="iOdEwq1WsNc-iahHYhRR-65" value="Th" style="strokeWidth=1;shadow=0;dashed=0;align=center;html=1;shape=mxgraph.mockup.forms.anchor;fontColor=#999999;" parent="iOdEwq1WsNc-iahHYhRR-58" vertex="1">
          <mxGeometry x="376.25" y="76.8" width="107.5" height="54.857142857142854" as="geometry" />
        </mxCell>
        <mxCell id="iOdEwq1WsNc-iahHYhRR-66" value="Fr" style="strokeWidth=1;shadow=0;dashed=0;align=center;html=1;shape=mxgraph.mockup.forms.anchor;fontColor=#999999;" parent="iOdEwq1WsNc-iahHYhRR-58" vertex="1">
          <mxGeometry x="483.75" y="76.8" width="107.5" height="54.857142857142854" as="geometry" />
        </mxCell>
        <mxCell id="iOdEwq1WsNc-iahHYhRR-67" value="Sa" style="strokeWidth=1;shadow=0;dashed=0;align=center;html=1;shape=mxgraph.mockup.forms.anchor;fontColor=#999999;" parent="iOdEwq1WsNc-iahHYhRR-58" vertex="1">
          <mxGeometry x="591.25" y="76.8" width="107.5" height="54.857142857142854" as="geometry" />
        </mxCell>
        <mxCell id="iOdEwq1WsNc-iahHYhRR-68" value="Su" style="strokeWidth=1;shadow=0;dashed=0;align=center;html=1;shape=mxgraph.mockup.forms.anchor;fontColor=#999999;" parent="iOdEwq1WsNc-iahHYhRR-58" vertex="1">
          <mxGeometry x="698.75" y="76.8" width="107.5" height="54.857142857142854" as="geometry" />
        </mxCell>
        <mxCell id="iOdEwq1WsNc-iahHYhRR-69" value="1" style="strokeWidth=1;shadow=0;dashed=0;align=center;html=1;shape=mxgraph.mockup.forms.rrect;rSize=0;strokeColor=#999999;fontColor=#999999;" parent="iOdEwq1WsNc-iahHYhRR-58" vertex="1">
          <mxGeometry x="53.75" y="131.65714285714287" width="107.5" height="54.857142857142854" as="geometry" />
        </mxCell>
        <mxCell id="iOdEwq1WsNc-iahHYhRR-70" value="2" style="strokeWidth=1;shadow=0;dashed=0;align=center;html=1;shape=mxgraph.mockup.forms.rrect;rSize=0;strokeColor=#999999;fontColor=#999999;" parent="iOdEwq1WsNc-iahHYhRR-58" vertex="1">
          <mxGeometry x="161.25" y="131.65714285714287" width="107.5" height="54.857142857142854" as="geometry" />
        </mxCell>
        <mxCell id="iOdEwq1WsNc-iahHYhRR-71" value="3" style="strokeWidth=1;shadow=0;dashed=0;align=center;html=1;shape=mxgraph.mockup.forms.rrect;rSize=0;strokeColor=#999999;fontColor=#999999;" parent="iOdEwq1WsNc-iahHYhRR-58" vertex="1">
          <mxGeometry x="268.75" y="131.65714285714287" width="107.5" height="54.857142857142854" as="geometry" />
        </mxCell>
        <mxCell id="iOdEwq1WsNc-iahHYhRR-72" value="4" style="strokeWidth=1;shadow=0;dashed=0;align=center;html=1;shape=mxgraph.mockup.forms.rrect;rSize=0;strokeColor=#999999;fontColor=#999999;" parent="iOdEwq1WsNc-iahHYhRR-58" vertex="1">
          <mxGeometry x="376.25" y="131.65714285714287" width="107.5" height="54.857142857142854" as="geometry" />
        </mxCell>
        <mxCell id="iOdEwq1WsNc-iahHYhRR-73" value="5" style="strokeWidth=1;shadow=0;dashed=0;align=center;html=1;shape=mxgraph.mockup.forms.rrect;rSize=0;strokeColor=#999999;fontColor=#999999;" parent="iOdEwq1WsNc-iahHYhRR-58" vertex="1">
          <mxGeometry x="483.75" y="131.65714285714287" width="107.5" height="54.857142857142854" as="geometry" />
        </mxCell>
        <mxCell id="iOdEwq1WsNc-iahHYhRR-74" value="6" style="strokeWidth=1;shadow=0;dashed=0;align=center;html=1;shape=mxgraph.mockup.forms.rrect;rSize=0;strokeColor=#999999;fontColor=#999999;" parent="iOdEwq1WsNc-iahHYhRR-58" vertex="1">
          <mxGeometry x="591.25" y="131.65714285714287" width="107.5" height="54.857142857142854" as="geometry" />
        </mxCell>
        <mxCell id="iOdEwq1WsNc-iahHYhRR-75" value="7" style="strokeWidth=1;shadow=0;dashed=0;align=center;html=1;shape=mxgraph.mockup.forms.rrect;rSize=0;strokeColor=#999999;fontColor=#999999;" parent="iOdEwq1WsNc-iahHYhRR-58" vertex="1">
          <mxGeometry x="698.75" y="131.65714285714287" width="107.5" height="54.857142857142854" as="geometry" />
        </mxCell>
        <mxCell id="iOdEwq1WsNc-iahHYhRR-76" value="8" style="strokeWidth=1;shadow=0;dashed=0;align=center;html=1;shape=mxgraph.mockup.forms.rrect;rSize=0;strokeColor=#999999;fontColor=#999999;" parent="iOdEwq1WsNc-iahHYhRR-58" vertex="1">
          <mxGeometry x="53.75" y="186.5142857142857" width="107.5" height="54.857142857142854" as="geometry" />
        </mxCell>
        <mxCell id="iOdEwq1WsNc-iahHYhRR-77" value="9" style="strokeWidth=1;shadow=0;dashed=0;align=center;html=1;shape=mxgraph.mockup.forms.rrect;rSize=0;strokeColor=#999999;fontColor=#999999;" parent="iOdEwq1WsNc-iahHYhRR-58" vertex="1">
          <mxGeometry x="161.25" y="186.5142857142857" width="107.5" height="54.857142857142854" as="geometry" />
        </mxCell>
        <mxCell id="iOdEwq1WsNc-iahHYhRR-78" value="10" style="strokeWidth=1;shadow=0;dashed=0;align=center;html=1;shape=mxgraph.mockup.forms.rrect;rSize=0;strokeColor=#999999;fontColor=#999999;" parent="iOdEwq1WsNc-iahHYhRR-58" vertex="1">
          <mxGeometry x="268.75" y="186.5142857142857" width="107.5" height="54.857142857142854" as="geometry" />
        </mxCell>
        <mxCell id="iOdEwq1WsNc-iahHYhRR-79" value="11" style="strokeWidth=1;shadow=0;dashed=0;align=center;html=1;shape=mxgraph.mockup.forms.rrect;rSize=0;strokeColor=#999999;fontColor=#999999;" parent="iOdEwq1WsNc-iahHYhRR-58" vertex="1">
          <mxGeometry x="376.25" y="186.5142857142857" width="107.5" height="54.857142857142854" as="geometry" />
        </mxCell>
        <mxCell id="iOdEwq1WsNc-iahHYhRR-80" value="12" style="strokeWidth=1;shadow=0;dashed=0;align=center;html=1;shape=mxgraph.mockup.forms.rrect;rSize=0;strokeColor=#999999;fontColor=#999999;" parent="iOdEwq1WsNc-iahHYhRR-58" vertex="1">
          <mxGeometry x="483.75" y="186.5142857142857" width="107.5" height="54.857142857142854" as="geometry" />
        </mxCell>
        <mxCell id="iOdEwq1WsNc-iahHYhRR-81" value="13" style="strokeWidth=1;shadow=0;dashed=0;align=center;html=1;shape=mxgraph.mockup.forms.rrect;rSize=0;strokeColor=#999999;fontColor=#999999;" parent="iOdEwq1WsNc-iahHYhRR-58" vertex="1">
          <mxGeometry x="591.25" y="186.5142857142857" width="107.5" height="54.857142857142854" as="geometry" />
        </mxCell>
        <mxCell id="iOdEwq1WsNc-iahHYhRR-82" value="14" style="strokeWidth=1;shadow=0;dashed=0;align=center;html=1;shape=mxgraph.mockup.forms.rrect;rSize=0;strokeColor=#999999;fontColor=#999999;" parent="iOdEwq1WsNc-iahHYhRR-58" vertex="1">
          <mxGeometry x="698.75" y="186.5142857142857" width="107.5" height="54.857142857142854" as="geometry" />
        </mxCell>
        <mxCell id="iOdEwq1WsNc-iahHYhRR-83" value="15" style="strokeWidth=1;shadow=0;dashed=0;align=center;html=1;shape=mxgraph.mockup.forms.rrect;rSize=0;strokeColor=#999999;fontColor=#999999;" parent="iOdEwq1WsNc-iahHYhRR-58" vertex="1">
          <mxGeometry x="53.75" y="241.37142857142857" width="107.5" height="54.857142857142854" as="geometry" />
        </mxCell>
        <mxCell id="iOdEwq1WsNc-iahHYhRR-84" value="16" style="strokeWidth=1;shadow=0;dashed=0;align=center;html=1;shape=mxgraph.mockup.forms.rrect;rSize=0;strokeColor=#999999;fontColor=#999999;" parent="iOdEwq1WsNc-iahHYhRR-58" vertex="1">
          <mxGeometry x="161.25" y="241.37142857142857" width="107.5" height="54.857142857142854" as="geometry" />
        </mxCell>
        <mxCell id="iOdEwq1WsNc-iahHYhRR-85" value="17" style="strokeWidth=1;shadow=0;dashed=0;align=center;html=1;shape=mxgraph.mockup.forms.rrect;rSize=0;strokeColor=#999999;fontColor=#999999;" parent="iOdEwq1WsNc-iahHYhRR-58" vertex="1">
          <mxGeometry x="268.75" y="241.37142857142857" width="107.5" height="54.857142857142854" as="geometry" />
        </mxCell>
        <mxCell id="iOdEwq1WsNc-iahHYhRR-86" value="18" style="strokeWidth=1;shadow=0;dashed=0;align=center;html=1;shape=mxgraph.mockup.forms.rrect;rSize=0;strokeColor=#999999;fontColor=#999999;" parent="iOdEwq1WsNc-iahHYhRR-58" vertex="1">
          <mxGeometry x="376.25" y="241.37142857142857" width="107.5" height="54.857142857142854" as="geometry" />
        </mxCell>
        <mxCell id="iOdEwq1WsNc-iahHYhRR-87" value="19" style="strokeWidth=1;shadow=0;dashed=0;align=center;html=1;shape=mxgraph.mockup.forms.rrect;rSize=0;strokeColor=#999999;fontColor=#999999;" parent="iOdEwq1WsNc-iahHYhRR-58" vertex="1">
          <mxGeometry x="483.75" y="241.37142857142857" width="107.5" height="54.857142857142854" as="geometry" />
        </mxCell>
        <mxCell id="iOdEwq1WsNc-iahHYhRR-88" value="20" style="strokeWidth=1;shadow=0;dashed=0;align=center;html=1;shape=mxgraph.mockup.forms.rrect;rSize=0;strokeColor=#999999;fontColor=#999999;" parent="iOdEwq1WsNc-iahHYhRR-58" vertex="1">
          <mxGeometry x="591.25" y="241.37142857142857" width="107.5" height="54.857142857142854" as="geometry" />
        </mxCell>
        <mxCell id="iOdEwq1WsNc-iahHYhRR-89" value="21" style="strokeWidth=1;shadow=0;dashed=0;align=center;html=1;shape=mxgraph.mockup.forms.rrect;rSize=0;strokeColor=#999999;fontColor=#999999;" parent="iOdEwq1WsNc-iahHYhRR-58" vertex="1">
          <mxGeometry x="698.75" y="241.37142857142857" width="107.5" height="54.857142857142854" as="geometry" />
        </mxCell>
        <mxCell id="iOdEwq1WsNc-iahHYhRR-90" value="22&lt;br&gt;total: 2500kcal" style="strokeWidth=1;shadow=0;dashed=0;align=center;html=1;shape=mxgraph.mockup.forms.rrect;rSize=0;strokeColor=#999999;fontColor=#999999;" parent="iOdEwq1WsNc-iahHYhRR-58" vertex="1">
          <mxGeometry x="53.75" y="296.2285714285714" width="107.5" height="54.857142857142854" as="geometry" />
        </mxCell>
        <mxCell id="iOdEwq1WsNc-iahHYhRR-91" value="23&lt;br&gt;total:1700kcal" style="strokeWidth=1;shadow=0;dashed=0;align=center;html=1;shape=mxgraph.mockup.forms.rrect;rSize=0;strokeColor=#999999;fontColor=#999999;" parent="iOdEwq1WsNc-iahHYhRR-58" vertex="1">
          <mxGeometry x="161.25" y="296.2285714285714" width="107.5" height="54.857142857142854" as="geometry" />
        </mxCell>
        <mxCell id="iOdEwq1WsNc-iahHYhRR-92" value="25" style="strokeWidth=1;shadow=0;dashed=0;align=center;html=1;shape=mxgraph.mockup.forms.rrect;rSize=0;strokeColor=#999999;fontColor=#999999;" parent="iOdEwq1WsNc-iahHYhRR-58" vertex="1">
          <mxGeometry x="376.25" y="296.2285714285714" width="107.5" height="54.857142857142854" as="geometry" />
        </mxCell>
        <mxCell id="iOdEwq1WsNc-iahHYhRR-93" value="26" style="strokeWidth=1;shadow=0;dashed=0;align=center;html=1;shape=mxgraph.mockup.forms.rrect;rSize=0;strokeColor=#999999;fontColor=#999999;" parent="iOdEwq1WsNc-iahHYhRR-58" vertex="1">
          <mxGeometry x="483.75" y="296.2285714285714" width="107.5" height="54.857142857142854" as="geometry" />
        </mxCell>
        <mxCell id="iOdEwq1WsNc-iahHYhRR-94" value="27" style="strokeWidth=1;shadow=0;dashed=0;align=center;html=1;shape=mxgraph.mockup.forms.rrect;rSize=0;strokeColor=#999999;fontColor=#999999;" parent="iOdEwq1WsNc-iahHYhRR-58" vertex="1">
          <mxGeometry x="591.25" y="296.2285714285714" width="107.5" height="54.857142857142854" as="geometry" />
        </mxCell>
        <mxCell id="iOdEwq1WsNc-iahHYhRR-95" value="28" style="strokeWidth=1;shadow=0;dashed=0;align=center;html=1;shape=mxgraph.mockup.forms.rrect;rSize=0;strokeColor=#999999;fontColor=#999999;" parent="iOdEwq1WsNc-iahHYhRR-58" vertex="1">
          <mxGeometry x="698.75" y="296.2285714285714" width="107.5" height="54.857142857142854" as="geometry" />
        </mxCell>
        <mxCell id="iOdEwq1WsNc-iahHYhRR-96" value="29" style="strokeWidth=1;shadow=0;dashed=0;align=center;html=1;shape=mxgraph.mockup.forms.rrect;rSize=0;strokeColor=#999999;fontColor=#999999;" parent="iOdEwq1WsNc-iahHYhRR-58" vertex="1">
          <mxGeometry x="53.75" y="351.08571428571423" width="107.5" height="54.857142857142854" as="geometry" />
        </mxCell>
        <mxCell id="iOdEwq1WsNc-iahHYhRR-97" value="30" style="strokeWidth=1;shadow=0;dashed=0;align=center;html=1;shape=mxgraph.mockup.forms.rrect;rSize=0;strokeColor=#999999;fontColor=#999999;" parent="iOdEwq1WsNc-iahHYhRR-58" vertex="1">
          <mxGeometry x="161.25" y="351.08571428571423" width="107.5" height="54.857142857142854" as="geometry" />
        </mxCell>
        <mxCell id="iOdEwq1WsNc-iahHYhRR-98" value="31" style="strokeWidth=1;shadow=0;dashed=0;align=center;html=1;shape=mxgraph.mockup.forms.rrect;rSize=0;strokeColor=#999999;fontColor=#999999;" parent="iOdEwq1WsNc-iahHYhRR-58" vertex="1">
          <mxGeometry x="268.75" y="351.08571428571423" width="107.5" height="54.857142857142854" as="geometry" />
        </mxCell>
        <mxCell id="iOdEwq1WsNc-iahHYhRR-99" value="1" style="strokeWidth=1;shadow=0;dashed=0;align=center;html=1;shape=mxgraph.mockup.forms.rrect;rSize=0;" parent="iOdEwq1WsNc-iahHYhRR-58" vertex="1">
          <mxGeometry x="376.25" y="351.08571428571423" width="107.5" height="54.857142857142854" as="geometry" />
        </mxCell>
        <mxCell id="iOdEwq1WsNc-iahHYhRR-100" value="2" style="strokeWidth=1;shadow=0;dashed=0;align=center;html=1;shape=mxgraph.mockup.forms.rrect;rSize=0;" parent="iOdEwq1WsNc-iahHYhRR-58" vertex="1">
          <mxGeometry x="483.75" y="351.08571428571423" width="107.5" height="54.857142857142854" as="geometry" />
        </mxCell>
        <mxCell id="iOdEwq1WsNc-iahHYhRR-101" value="3" style="strokeWidth=1;shadow=0;dashed=0;align=center;html=1;shape=mxgraph.mockup.forms.rrect;rSize=0;" parent="iOdEwq1WsNc-iahHYhRR-58" vertex="1">
          <mxGeometry x="591.25" y="351.08571428571423" width="107.5" height="54.857142857142854" as="geometry" />
        </mxCell>
        <mxCell id="iOdEwq1WsNc-iahHYhRR-102" value="4" style="strokeWidth=1;shadow=0;dashed=0;align=center;html=1;shape=mxgraph.mockup.forms.rrect;rSize=0;" parent="iOdEwq1WsNc-iahHYhRR-58" vertex="1">
          <mxGeometry x="698.75" y="351.08571428571423" width="107.5" height="54.857142857142854" as="geometry" />
        </mxCell>
        <mxCell id="iOdEwq1WsNc-iahHYhRR-103" value="5" style="strokeWidth=1;shadow=0;dashed=0;align=center;html=1;shape=mxgraph.mockup.forms.rrect;rSize=0;" parent="iOdEwq1WsNc-iahHYhRR-58" vertex="1">
          <mxGeometry x="53.75" y="405.9428571428572" width="107.5" height="54.857142857142854" as="geometry" />
        </mxCell>
        <mxCell id="iOdEwq1WsNc-iahHYhRR-104" value="6" style="strokeWidth=1;shadow=0;dashed=0;align=center;html=1;shape=mxgraph.mockup.forms.rrect;rSize=0;" parent="iOdEwq1WsNc-iahHYhRR-58" vertex="1">
          <mxGeometry x="161.25" y="405.9428571428572" width="107.5" height="54.857142857142854" as="geometry" />
        </mxCell>
        <mxCell id="iOdEwq1WsNc-iahHYhRR-105" value="7" style="strokeWidth=1;shadow=0;dashed=0;align=center;html=1;shape=mxgraph.mockup.forms.rrect;rSize=0;" parent="iOdEwq1WsNc-iahHYhRR-58" vertex="1">
          <mxGeometry x="268.75" y="405.9428571428572" width="107.5" height="54.857142857142854" as="geometry" />
        </mxCell>
        <mxCell id="iOdEwq1WsNc-iahHYhRR-106" value="8" style="strokeWidth=1;shadow=0;dashed=0;align=center;html=1;shape=mxgraph.mockup.forms.rrect;rSize=0;" parent="iOdEwq1WsNc-iahHYhRR-58" vertex="1">
          <mxGeometry x="376.25" y="405.9428571428572" width="107.5" height="54.857142857142854" as="geometry" />
        </mxCell>
        <mxCell id="iOdEwq1WsNc-iahHYhRR-107" value="9" style="strokeWidth=1;shadow=0;dashed=0;align=center;html=1;shape=mxgraph.mockup.forms.rrect;rSize=0;" parent="iOdEwq1WsNc-iahHYhRR-58" vertex="1">
          <mxGeometry x="483.75" y="405.9428571428572" width="107.5" height="54.857142857142854" as="geometry" />
        </mxCell>
        <mxCell id="iOdEwq1WsNc-iahHYhRR-108" value="10" style="strokeWidth=1;shadow=0;dashed=0;align=center;html=1;shape=mxgraph.mockup.forms.rrect;rSize=0;" parent="iOdEwq1WsNc-iahHYhRR-58" vertex="1">
          <mxGeometry x="591.25" y="405.9428571428572" width="107.5" height="54.857142857142854" as="geometry" />
        </mxCell>
        <mxCell id="iOdEwq1WsNc-iahHYhRR-109" value="11" style="strokeWidth=1;shadow=0;dashed=0;align=center;html=1;shape=mxgraph.mockup.forms.rrect;rSize=0;" parent="iOdEwq1WsNc-iahHYhRR-58" vertex="1">
          <mxGeometry x="698.75" y="405.9428571428572" width="107.5" height="54.857142857142854" as="geometry" />
        </mxCell>
        <mxCell id="iOdEwq1WsNc-iahHYhRR-110" value="24&lt;br&gt;total: 1800kcal" style="strokeWidth=1;shadow=0;dashed=0;align=center;html=1;shape=mxgraph.mockup.forms.rrect;rSize=0;strokeColor=#ff0000;fontColor=#ffffff;strokeWidth=2;fillColor=#008cff;" parent="iOdEwq1WsNc-iahHYhRR-58" vertex="1">
          <mxGeometry x="268.75" y="296.2285714285714" width="107.5" height="54.857142857142854" as="geometry" />
        </mxCell>
        <mxCell id="iOdEwq1WsNc-iahHYhRR-113" value="Select the date you want to check your plates" style="text;html=1;strokeColor=none;fillColor=none;align=center;verticalAlign=middle;whiteSpace=wrap;rounded=0;fontFamily=Verdana;fontSize=16;" parent="1" vertex="1">
          <mxGeometry x="290" y="1140" width="500" height="20" as="geometry" />
        </mxCell>
        <mxCell id="iOdEwq1WsNc-iahHYhRR-118" value="&lt;span style=&quot;font-size: 18px&quot;&gt;Login&lt;/span&gt;" style="text;html=1;points=[];align=left;verticalAlign=top;spacingTop=-4;fontSize=14;fontFamily=Verdana" parent="1" vertex="1">
          <mxGeometry x="1960" y="990" width="90" height="30" as="geometry" />
        </mxCell>
        <mxCell id="iOdEwq1WsNc-iahHYhRR-119" value="&lt;span style=&quot;font-size: 18px&quot;&gt;Login&lt;/span&gt;" style="text;html=1;points=[];align=left;verticalAlign=top;spacingTop=-4;fontSize=14;fontFamily=Verdana" parent="1" vertex="1">
          <mxGeometry x="870" y="990" width="90" height="30" as="geometry" />
        </mxCell>
        <mxCell id="iOdEwq1WsNc-iahHYhRR-121" value="&lt;font style=&quot;font-size: 18px&quot;&gt;Sign up&lt;/font&gt;" style="text;html=1;points=[];align=left;verticalAlign=top;spacingTop=-4;fontSize=14;fontFamily=Verdana" parent="1" vertex="1">
          <mxGeometry x="960" y="990" width="70" height="40" as="geometry" />
        </mxCell>
        <mxCell id="iOdEwq1WsNc-iahHYhRR-120" value="&lt;font style=&quot;font-size: 18px&quot;&gt;Sign up&lt;/font&gt;" style="text;html=1;points=[];align=left;verticalAlign=top;spacingTop=-4;fontSize=14;fontFamily=Verdana" parent="1" vertex="1">
          <mxGeometry x="2040" y="990" width="70" height="40" as="geometry" />
        </mxCell>
        <mxCell id="iOdEwq1WsNc-iahHYhRR-126" value="&lt;span style=&quot;color: rgba(0 , 0 , 0 , 0) ; font-family: monospace ; font-size: 0px&quot;&gt;%3CmxGraphModel%3E%3Croot%3E%3CmxCell%20id%3D%220%22%2F%3E%3CmxCell%20id%3D%221%22%20parent%3D%220%22%2F%3E%3CmxCell%20id%3D%222%22%20value%3D%22%22%20style%3D%22strokeWidth%3D1%3Bshadow%3D0%3Bdashed%3D0%3Balign%3Dcenter%3Bhtml%3D1%3Bshape%3Dmxgraph.mockup.forms.rrect%3BrSize%3D0%3BstrokeColor%3D%23999999%3BfontColor%3D%23666666%3Balign%3Dleft%3BspacingLeft%3D5%3BresizeWidth%3D1%3B%22%20vertex%3D%221%22%20parent%3D%221%22%3E%3CmxGeometry%20x%3D%22420%22%20y%3D%222235%22%20width%3D%22250%22%20height%3D%2230%22%20as%3D%22geometry%22%2F%3E%3C%2FmxCell%3E%3C%2Froot%3E%3C%2FmxGraphModel%3E&lt;/span&gt;" style="strokeWidth=1;shadow=0;dashed=0;align=center;html=1;shape=mxgraph.mockup.forms.rrect;rSize=0;strokeColor=#999999;fillColor=#ffffff;fontFamily=Verdana;fontSize=16;" parent="1" vertex="1">
          <mxGeometry x="290" y="1890" width="500" height="590" as="geometry" />
        </mxCell>
        <mxCell id="iOdEwq1WsNc-iahHYhRR-127" value="" style="strokeWidth=1;shadow=0;dashed=0;align=center;html=1;shape=mxgraph.mockup.forms.anchor;fontSize=12;fontColor=#666666;align=left;resizeWidth=1;spacingLeft=0;" parent="iOdEwq1WsNc-iahHYhRR-126" vertex="1">
          <mxGeometry width="250.00000000000003" height="20" relative="1" as="geometry">
            <mxPoint x="10" y="10" as="offset" />
          </mxGeometry>
        </mxCell>
        <mxCell id="iOdEwq1WsNc-iahHYhRR-128" value="" style="shape=line;strokeColor=#ddeeff;strokeWidth=2;html=1;resizeWidth=1;" parent="iOdEwq1WsNc-iahHYhRR-126" vertex="1">
          <mxGeometry width="450.00000000000006" height="10" relative="1" as="geometry">
            <mxPoint x="20" y="30" as="offset" />
          </mxGeometry>
        </mxCell>
        <mxCell id="iOdEwq1WsNc-iahHYhRR-129" value="Email:*" style="strokeWidth=1;shadow=0;dashed=0;align=center;html=1;shape=mxgraph.mockup.forms.anchor;fontSize=12;fontColor=#666666;align=left;resizeWidth=1;spacingLeft=0;strokeColor=none;" parent="iOdEwq1WsNc-iahHYhRR-126" vertex="1">
          <mxGeometry width="250.00000000000003" height="20" relative="1" as="geometry">
            <mxPoint x="65" y="160" as="offset" />
          </mxGeometry>
        </mxCell>
        <mxCell id="iOdEwq1WsNc-iahHYhRR-130" value="" style="strokeWidth=1;shadow=0;dashed=0;align=center;html=1;shape=mxgraph.mockup.forms.rrect;rSize=0;strokeColor=#999999;fontColor=#666666;align=left;spacingLeft=5;resizeWidth=1;" parent="iOdEwq1WsNc-iahHYhRR-126" vertex="1">
          <mxGeometry width="250" height="30" relative="1" as="geometry">
            <mxPoint x="120" y="300" as="offset" />
          </mxGeometry>
        </mxCell>
        <mxCell id="iOdEwq1WsNc-iahHYhRR-131" value="Password:*" style="strokeWidth=1;shadow=0;dashed=0;align=center;html=1;shape=mxgraph.mockup.forms.anchor;fontSize=12;fontColor=#666666;align=left;resizeWidth=1;spacingLeft=0;strokeColor=none;" parent="iOdEwq1WsNc-iahHYhRR-126" vertex="1">
          <mxGeometry width="250.00000000000003" height="20" relative="1" as="geometry">
            <mxPoint x="45" y="225" as="offset" />
          </mxGeometry>
        </mxCell>
        <mxCell id="iOdEwq1WsNc-iahHYhRR-132" value="Johon Doe" style="strokeWidth=1;shadow=0;dashed=0;align=center;html=1;shape=mxgraph.mockup.forms.rrect;rSize=0;strokeColor=#999999;fontColor=#666666;align=left;spacingLeft=5;resizeWidth=1;" parent="iOdEwq1WsNc-iahHYhRR-126" vertex="1">
          <mxGeometry width="250" height="30" relative="1" as="geometry">
            <mxPoint x="120" y="100" as="offset" />
          </mxGeometry>
        </mxCell>
        <mxCell id="iOdEwq1WsNc-iahHYhRR-134" value="Already have account?&amp;nbsp;" style="strokeWidth=1;shadow=0;dashed=0;align=center;html=1;shape=mxgraph.mockup.forms.anchor;fontSize=12;fontColor=#9999ff;align=left;spacingLeft=0;fontStyle=4;resizeWidth=1;strokeColor=none;" parent="iOdEwq1WsNc-iahHYhRR-126" vertex="1">
          <mxGeometry y="1" width="375" height="20" relative="1" as="geometry">
            <mxPoint x="170" y="-70" as="offset" />
          </mxGeometry>
        </mxCell>
        <mxCell id="iOdEwq1WsNc-iahHYhRR-135" value="" style="shape=line;strokeColor=#ddeeff;strokeWidth=2;html=1;resizeWidth=1;" parent="iOdEwq1WsNc-iahHYhRR-126" vertex="1">
          <mxGeometry y="1" width="450.00000000000006" height="10" relative="1" as="geometry">
            <mxPoint x="10" y="-90" as="offset" />
          </mxGeometry>
        </mxCell>
        <mxCell id="iOdEwq1WsNc-iahHYhRR-137" value="SIGN UP" style="strokeWidth=1;shadow=0;dashed=0;align=center;html=1;shape=mxgraph.mockup.forms.rrect;rSize=5;strokeColor=none;fontColor=#ffffff;fillColor=#66bbff;fontSize=16;fontStyle=1;" parent="iOdEwq1WsNc-iahHYhRR-126" vertex="1">
          <mxGeometry y="1" width="80" height="30" relative="1" as="geometry">
            <mxPoint x="190" y="-140" as="offset" />
          </mxGeometry>
        </mxCell>
        <mxCell id="iOdEwq1WsNc-iahHYhRR-141" value="asd@gmail.com" style="strokeWidth=1;shadow=0;dashed=0;align=center;html=1;shape=mxgraph.mockup.forms.rrect;rSize=0;strokeColor=#999999;fontColor=#666666;align=left;spacingLeft=5;resizeWidth=1;" parent="iOdEwq1WsNc-iahHYhRR-126" vertex="1">
          <mxGeometry x="120" y="160" width="250" height="30" as="geometry" />
        </mxCell>
        <mxCell id="iOdEwq1WsNc-iahHYhRR-142" value="********" style="strokeWidth=1;shadow=0;dashed=0;align=center;html=1;shape=mxgraph.mockup.forms.rrect;rSize=0;strokeColor=#999999;fontColor=#666666;align=left;spacingLeft=5;resizeWidth=1;" parent="iOdEwq1WsNc-iahHYhRR-126" vertex="1">
          <mxGeometry x="120" y="220" width="250" height="30" as="geometry" />
        </mxCell>
        <mxCell id="iOdEwq1WsNc-iahHYhRR-143" value="" style="strokeWidth=1;shadow=0;dashed=0;align=center;html=1;shape=mxgraph.mockup.forms.rrect;rSize=0;strokeColor=#999999;fontColor=#666666;align=left;spacingLeft=5;resizeWidth=1;" parent="iOdEwq1WsNc-iahHYhRR-126" vertex="1">
          <mxGeometry x="120" y="345" width="250" height="30" as="geometry" />
        </mxCell>
        <mxCell id="iOdEwq1WsNc-iahHYhRR-145" value="Height:" style="strokeWidth=1;shadow=0;dashed=0;align=center;html=1;shape=mxgraph.mockup.forms.anchor;fontSize=12;fontColor=#666666;align=left;resizeWidth=1;spacingLeft=0;strokeColor=none;" parent="iOdEwq1WsNc-iahHYhRR-126" vertex="1">
          <mxGeometry x="65" y="300" width="250.00000000000003" height="20" as="geometry" />
        </mxCell>
        <mxCell id="iOdEwq1WsNc-iahHYhRR-144" value="Name:*" style="strokeWidth=1;shadow=0;dashed=0;align=center;html=1;shape=mxgraph.mockup.forms.anchor;fontSize=12;fontColor=#666666;align=left;resizeWidth=1;spacingLeft=0;verticalAlign=middle;strokeColor=none;" parent="iOdEwq1WsNc-iahHYhRR-126" vertex="1">
          <mxGeometry x="65" y="100" width="262.5" height="30" as="geometry" />
        </mxCell>
        <mxCell id="iOdEwq1WsNc-iahHYhRR-146" value="Weight:" style="strokeWidth=1;shadow=0;dashed=0;align=center;html=1;shape=mxgraph.mockup.forms.anchor;fontSize=12;fontColor=#666666;align=left;resizeWidth=1;spacingLeft=0;strokeColor=none;" parent="iOdEwq1WsNc-iahHYhRR-126" vertex="1">
          <mxGeometry x="65" y="345" width="250.00000000000003" height="20" as="geometry" />
        </mxCell>
        <mxCell id="iOdEwq1WsNc-iahHYhRR-147" value="Check and track recommended daily calories for healthy life! (optional)" style="strokeWidth=1;shadow=0;dashed=0;align=center;html=1;shape=mxgraph.mockup.forms.anchor;fontSize=12;fontColor=#666666;align=left;resizeWidth=1;spacingLeft=0;strokeColor=none;" parent="iOdEwq1WsNc-iahHYhRR-126" vertex="1">
          <mxGeometry x="70" y="260" width="370" height="30" as="geometry" />
        </mxCell>
        <mxCell id="iOdEwq1WsNc-iahHYhRR-149" value="" style="strokeWidth=1;shadow=0;dashed=0;align=center;html=1;shape=mxgraph.mockup.forms.rrect;rSize=0;strokeColor=#999999;fontColor=#666666;align=left;spacingLeft=5;resizeWidth=1;" parent="iOdEwq1WsNc-iahHYhRR-126" vertex="1">
          <mxGeometry x="120" y="390" width="250" height="30" as="geometry" />
        </mxCell>
        <mxCell id="iOdEwq1WsNc-iahHYhRR-150" value="Recommended&lt;br&gt;&lt;div style=&quot;text-align: right&quot;&gt;&lt;span&gt;Calories:&lt;/span&gt;&lt;/div&gt;" style="strokeWidth=1;shadow=0;dashed=0;align=right;html=1;shape=mxgraph.mockup.forms.anchor;fontSize=12;fontColor=#666666;align=left;resizeWidth=1;spacingLeft=0;strokeColor=none;" parent="iOdEwq1WsNc-iahHYhRR-126" vertex="1">
          <mxGeometry x="30" y="395" width="250" height="25" as="geometry" />
        </mxCell>
        <mxCell id="iOdEwq1WsNc-iahHYhRR-138" value="Calorie Tracker" style="whiteSpace=wrap;html=1;rounded=0;shadow=0;labelBackgroundColor=none;strokeWidth=1;fontFamily=Verdana;fontSize=28;align=center;comic=1;" parent="1" vertex="1">
          <mxGeometry x="365" y="1790" width="350" height="50" as="geometry" />
        </mxCell>
        <mxCell id="4N1Lm0MANLfWKqpjn2IC-1" value="Recipe" style="rounded=1;whiteSpace=wrap;html=1;fillColor=#d5e8d4;strokeColor=#82b366;" vertex="1" parent="1">
          <mxGeometry x="305" y="630" width="55" height="20" as="geometry" />
        </mxCell>
        <mxCell id="4N1Lm0MANLfWKqpjn2IC-2" value="Recipe" style="rounded=1;whiteSpace=wrap;html=1;fillColor=#d5e8d4;strokeColor=#82b366;" vertex="1" parent="1">
          <mxGeometry x="865" y="633.13" width="55" height="20" as="geometry" />
        </mxCell>
        <mxCell id="4N1Lm0MANLfWKqpjn2IC-3" value="Recipe" style="rounded=1;whiteSpace=wrap;html=1;fillColor=#d5e8d4;strokeColor=#82b366;" vertex="1" parent="1">
          <mxGeometry x="585" y="633.13" width="55" height="20" as="geometry" />
        </mxCell>
        <mxCell id="4N1Lm0MANLfWKqpjn2IC-8" value="" style="whiteSpace=wrap;html=1;rounded=0;shadow=0;labelBackgroundColor=none;strokeWidth=1;fontFamily=Verdana;fontSize=12;align=center;comic=1;" vertex="1" parent="1">
          <mxGeometry x="1092.5" y="1740" width="1100" height="810" as="geometry" />
        </mxCell>
        <mxCell id="4N1Lm0MANLfWKqpjn2IC-9" value="Calorie Tracker" style="whiteSpace=wrap;html=1;rounded=0;shadow=0;labelBackgroundColor=none;strokeWidth=1;fontFamily=Verdana;fontSize=28;align=center;comic=1;" vertex="1" parent="1">
          <mxGeometry x="1490" y="1810" width="350" height="50" as="geometry" />
        </mxCell>
        <mxCell id="4N1Lm0MANLfWKqpjn2IC-10" value="" style="line;strokeWidth=1;html=1;rounded=0;shadow=0;labelBackgroundColor=none;fillColor=none;fontFamily=Verdana;fontSize=14;fontColor=#000000;align=center;comic=1;" vertex="1" parent="1">
          <mxGeometry x="1110" y="1890" width="1060" height="10" as="geometry" />
        </mxCell>
        <mxCell id="4N1Lm0MANLfWKqpjn2IC-11" value="" style="whiteSpace=wrap;html=1;rounded=0;shadow=0;labelBackgroundColor=none;strokeWidth=1;fillColor=none;fontFamily=Verdana;fontSize=12;align=center;comic=1;" vertex="1" parent="1">
          <mxGeometry x="1122.5" y="1910" width="1040" height="50" as="geometry" />
        </mxCell>
        <mxCell id="4N1Lm0MANLfWKqpjn2IC-12" value="Home" style="text;html=1;points=[];align=left;verticalAlign=top;spacingTop=-4;fontSize=14;fontFamily=Verdana" vertex="1" parent="1">
          <mxGeometry x="1200" y="1922.5" width="90" height="25" as="geometry" />
        </mxCell>
        <mxCell id="4N1Lm0MANLfWKqpjn2IC-13" value="&lt;div style=&quot;text-align: center&quot;&gt;&lt;span&gt;Daily tracker&lt;/span&gt;&lt;/div&gt;" style="text;html=1;points=[];align=left;verticalAlign=top;spacingTop=-4;fontSize=14;fontFamily=Verdana;" vertex="1" parent="1">
          <mxGeometry x="1400" y="1922.5" width="97" height="30" as="geometry" />
        </mxCell>
        <mxCell id="4N1Lm0MANLfWKqpjn2IC-14" value="Calorie Diary" style="text;html=1;points=[];align=left;verticalAlign=top;spacingTop=-4;fontSize=14;fontFamily=Verdana" vertex="1" parent="1">
          <mxGeometry x="1700" y="1920" width="100" height="30" as="geometry" />
        </mxCell>
        <mxCell id="4N1Lm0MANLfWKqpjn2IC-17" value="My Recipe" style="text;html=1;align=center;verticalAlign=middle;whiteSpace=wrap;rounded=0;fontSize=14;" vertex="1" parent="1">
          <mxGeometry x="1990" y="1920" width="80" height="25" as="geometry" />
        </mxCell>
        <mxCell id="4N1Lm0MANLfWKqpjn2IC-18" value="Recipe Detail" style="text;html=1;strokeColor=none;fillColor=none;align=center;verticalAlign=middle;whiteSpace=wrap;rounded=0;fontSize=21;" vertex="1" parent="1">
          <mxGeometry x="1545" y="1980" width="240" height="60" as="geometry" />
        </mxCell>
        <mxCell id="4N1Lm0MANLfWKqpjn2IC-19" value="" style="rounded=0;whiteSpace=wrap;html=1;fontSize=21;" vertex="1" parent="1">
          <mxGeometry x="1470" y="2060" width="400" height="270" as="geometry" />
        </mxCell>
        <mxCell id="4N1Lm0MANLfWKqpjn2IC-20" value="Chicken Noodle Soup (180kcal)&lt;br&gt;&lt;br&gt;Ingredients:&lt;br&gt;How to make:" style="rounded=0;whiteSpace=wrap;html=1;fontSize=21;align=left;strokeColor=none;fontFamily=Comic Sans MS;" vertex="1" parent="1">
          <mxGeometry x="1310" y="2380" width="710" height="160" as="geometry" />
        </mxCell>
        <mxCell id="4N1Lm0MANLfWKqpjn2IC-21" value="Save to &lt;br&gt;My Recipe" style="rounded=0;whiteSpace=wrap;html=1;fontSize=16;align=center;fillColor=#e1d5e7;strokeColor=#9673a6;" vertex="1" parent="1">
          <mxGeometry x="1870" y="2410" width="120" height="50" as="geometry" />
        </mxCell>
        <mxCell id="4N1Lm0MANLfWKqpjn2IC-23" value="" style="strokeWidth=1;shadow=0;dashed=0;align=center;html=1;shape=mxgraph.mockup.forms.searchBox;strokeColor=#999999;mainText=;strokeColor2=#008cff;fontColor=#666666;fontSize=17;align=left;spacingLeft=3;rounded=0;labelBackgroundColor=none;comic=1;" vertex="1" parent="1">
          <mxGeometry x="520" y="320" width="210" height="30" as="geometry" />
        </mxCell>
        <mxCell id="4N1Lm0MANLfWKqpjn2IC-24" value="0-180" style="strokeWidth=1;shadow=0;dashed=0;align=center;html=1;shape=mxgraph.mockup.forms.searchBox;strokeColor=#999999;mainText=;strokeColor2=#008cff;fontColor=#666666;fontSize=17;align=left;spacingLeft=3;rounded=0;labelBackgroundColor=none;comic=1;" vertex="1" parent="1">
          <mxGeometry x="267.5" y="320" width="192.5" height="30" as="geometry" />
        </mxCell>
        <mxCell id="4N1Lm0MANLfWKqpjn2IC-25" value="Calorie range :" style="text;html=1;strokeColor=none;fillColor=none;align=center;verticalAlign=middle;whiteSpace=wrap;rounded=0;fontSize=16;" vertex="1" parent="1">
          <mxGeometry x="157.5" y="325" width="110" height="20" as="geometry" />
        </mxCell>
        <mxCell id="4N1Lm0MANLfWKqpjn2IC-27" value="Diet:" style="text;html=1;strokeColor=none;fillColor=none;align=center;verticalAlign=middle;whiteSpace=wrap;rounded=0;fontSize=16;" vertex="1" parent="1">
          <mxGeometry x="460" y="320" width="80" height="30" as="geometry" />
        </mxCell>
        <mxCell id="4N1Lm0MANLfWKqpjn2IC-28" value="High-Fiber&lt;br&gt;High-Protein&lt;br&gt;Low-carb&lt;br&gt;Low-Fat&lt;br&gt;Low-Sodium&lt;br&gt;Alcohol-free&lt;br&gt;Dairy-free&lt;br&gt;Peanuts-free&lt;br&gt;Vegetarian" style="whiteSpace=wrap;html=1;aspect=fixed;fontSize=16;align=left;" vertex="1" parent="1">
          <mxGeometry x="520" y="350" width="210" height="210" as="geometry" />
        </mxCell>
        <mxCell id="4N1Lm0MANLfWKqpjn2IC-30" value="" style="shape=singleArrow;direction=west;whiteSpace=wrap;html=1;fontSize=16;align=left;" vertex="1" parent="1">
          <mxGeometry x="1250" y="1180" width="50" height="30" as="geometry" />
        </mxCell>
        <mxCell id="4N1Lm0MANLfWKqpjn2IC-31" value="" style="shape=singleArrow;whiteSpace=wrap;html=1;fontSize=16;align=left;" vertex="1" parent="1">
          <mxGeometry x="2020" y="1180" width="50" height="30" as="geometry" />
        </mxCell>
        <mxCell id="4N1Lm0MANLfWKqpjn2IC-32" value="My Recipe" style="text;html=1;strokeColor=none;fillColor=none;align=center;verticalAlign=middle;whiteSpace=wrap;rounded=0;fontSize=14;" vertex="1" parent="1">
          <mxGeometry x="2000" y="1085" width="80" height="25" as="geometry" />
        </mxCell>
        <mxCell id="4N1Lm0MANLfWKqpjn2IC-33" value="My Recipe" style="text;html=1;strokeColor=none;fillColor=none;align=center;verticalAlign=middle;whiteSpace=wrap;rounded=0;fontSize=14;" vertex="1" parent="1">
          <mxGeometry x="1180" y="1470" width="80" height="25" as="geometry" />
        </mxCell>
        <mxCell id="4N1Lm0MANLfWKqpjn2IC-34" value="My Recipe" style="text;html=1;strokeColor=none;fillColor=none;align=center;verticalAlign=middle;whiteSpace=wrap;rounded=0;fontSize=14;" vertex="1" parent="1">
          <mxGeometry x="840" y="172.5" width="80" height="25" as="geometry" />
        </mxCell>
        <mxCell id="4N1Lm0MANLfWKqpjn2IC-35" value="My Recipe" style="text;html=1;strokeColor=none;fillColor=none;align=center;verticalAlign=middle;whiteSpace=wrap;rounded=0;fontSize=14;" vertex="1" parent="1">
          <mxGeometry x="850" y="1082.5" width="80" height="25" as="geometry" />
        </mxCell>
        <mxCell id="4N1Lm0MANLfWKqpjn2IC-36" value="My Recipe" style="text;html=1;strokeColor=none;fillColor=none;align=center;verticalAlign=middle;whiteSpace=wrap;rounded=0;fontSize=14;" vertex="1" parent="1">
          <mxGeometry x="1245" y="1430" width="80" height="25" as="geometry" />
        </mxCell>
        <mxCell id="4N1Lm0MANLfWKqpjn2IC-40" value="" style="whiteSpace=wrap;html=1;rounded=0;shadow=0;labelBackgroundColor=none;strokeWidth=1;fontFamily=Verdana;fontSize=12;align=center;comic=1;" vertex="1" parent="1">
          <mxGeometry y="2580" width="1090" height="810" as="geometry" />
        </mxCell>
        <mxCell id="4N1Lm0MANLfWKqpjn2IC-41" value="Calorie Tracker" style="whiteSpace=wrap;html=1;rounded=0;shadow=0;labelBackgroundColor=none;strokeWidth=1;fontFamily=Verdana;fontSize=28;align=center;comic=1;" vertex="1" parent="1">
          <mxGeometry x="375" y="2610" width="350" height="50" as="geometry" />
        </mxCell>
        <mxCell id="4N1Lm0MANLfWKqpjn2IC-42" value="" style="line;strokeWidth=1;html=1;rounded=0;shadow=0;labelBackgroundColor=none;fillColor=none;fontFamily=Verdana;fontSize=14;fontColor=#000000;align=center;comic=1;" vertex="1" parent="1">
          <mxGeometry x="12.5" y="2690" width="1060" height="10" as="geometry" />
        </mxCell>
        <mxCell id="4N1Lm0MANLfWKqpjn2IC-43" value="" style="whiteSpace=wrap;html=1;rounded=0;shadow=0;labelBackgroundColor=none;strokeWidth=1;fillColor=none;fontFamily=Verdana;fontSize=12;align=center;comic=1;" vertex="1" parent="1">
          <mxGeometry x="20" y="2710" width="1040" height="50" as="geometry" />
        </mxCell>
        <mxCell id="4N1Lm0MANLfWKqpjn2IC-44" value="Home" style="text;html=1;points=[];align=left;verticalAlign=top;spacingTop=-4;fontSize=14;fontFamily=Verdana" vertex="1" parent="1">
          <mxGeometry x="110" y="2722.5" width="90" height="25" as="geometry" />
        </mxCell>
        <mxCell id="4N1Lm0MANLfWKqpjn2IC-45" value="&lt;div style=&quot;text-align: center&quot;&gt;&lt;span&gt;Daily tracker&lt;/span&gt;&lt;/div&gt;" style="text;html=1;points=[];align=left;verticalAlign=top;spacingTop=-4;fontSize=14;fontFamily=Verdana;" vertex="1" parent="1">
          <mxGeometry x="360" y="2720" width="97" height="30" as="geometry" />
        </mxCell>
        <mxCell id="4N1Lm0MANLfWKqpjn2IC-46" value="Calorie Diary" style="text;html=1;points=[];align=left;verticalAlign=top;spacingTop=-4;fontSize=14;fontFamily=Verdana" vertex="1" parent="1">
          <mxGeometry x="630" y="2720" width="100" height="30" as="geometry" />
        </mxCell>
        <mxCell id="4N1Lm0MANLfWKqpjn2IC-47" value="My Recipe" style="text;html=1;strokeColor=#b85450;fillColor=#f8cecc;align=center;verticalAlign=middle;whiteSpace=wrap;rounded=0;fontSize=14;" vertex="1" parent="1">
          <mxGeometry x="875" y="2720" width="80" height="25" as="geometry" />
        </mxCell>
        <mxCell id="4N1Lm0MANLfWKqpjn2IC-49" value="Chicken Noodle Soup" style="text;html=1;strokeColor=none;fillColor=none;align=center;verticalAlign=middle;whiteSpace=wrap;rounded=0;fontSize=21;" vertex="1" parent="1">
          <mxGeometry x="420" y="2800" width="240" height="60" as="geometry" />
        </mxCell>
        <mxCell id="4N1Lm0MANLfWKqpjn2IC-50" value="" style="rounded=0;whiteSpace=wrap;html=1;fontSize=21;" vertex="1" parent="1">
          <mxGeometry x="350" y="2890" width="400" height="270" as="geometry" />
        </mxCell>
        <mxCell id="4N1Lm0MANLfWKqpjn2IC-51" value="Chicken Noodle Soup (180kcal)&lt;br&gt;&lt;br&gt;Ingredients:&lt;br&gt;How to make:" style="rounded=0;whiteSpace=wrap;html=1;fontSize=21;align=left;strokeColor=none;fontFamily=Comic Sans MS;" vertex="1" parent="1">
          <mxGeometry x="195" y="3200" width="710" height="160" as="geometry" />
        </mxCell>
        <mxCell id="4N1Lm0MANLfWKqpjn2IC-52" value="" style="whiteSpace=wrap;html=1;rounded=0;shadow=0;labelBackgroundColor=none;strokeWidth=1;fontFamily=Verdana;fontSize=12;align=center;comic=1;" vertex="1" parent="1">
          <mxGeometry x="1102.5" y="2580" width="1090" height="810" as="geometry" />
        </mxCell>
        <mxCell id="4N1Lm0MANLfWKqpjn2IC-53" value="Calorie Tracker" style="whiteSpace=wrap;html=1;rounded=0;shadow=0;labelBackgroundColor=none;strokeWidth=1;fontFamily=Verdana;fontSize=28;align=center;comic=1;" vertex="1" parent="1">
          <mxGeometry x="1467.5" y="2620" width="350" height="50" as="geometry" />
        </mxCell>
        <mxCell id="4N1Lm0MANLfWKqpjn2IC-54" value="" style="line;strokeWidth=1;html=1;rounded=0;shadow=0;labelBackgroundColor=none;fillColor=none;fontFamily=Verdana;fontSize=14;fontColor=#000000;align=center;comic=1;" vertex="1" parent="1">
          <mxGeometry x="1117.5" y="2690" width="1060" height="10" as="geometry" />
        </mxCell>
        <mxCell id="4N1Lm0MANLfWKqpjn2IC-55" value="" style="whiteSpace=wrap;html=1;rounded=0;shadow=0;labelBackgroundColor=none;strokeWidth=1;fillColor=none;fontFamily=Verdana;fontSize=12;align=center;comic=1;" vertex="1" parent="1">
          <mxGeometry x="1130" y="2722.5" width="1040" height="50" as="geometry" />
        </mxCell>
        <mxCell id="4N1Lm0MANLfWKqpjn2IC-57" value="Home" style="text;html=1;points=[];align=left;verticalAlign=top;spacingTop=-4;fontSize=14;fontFamily=Verdana" vertex="1" parent="1">
          <mxGeometry x="1230" y="2735" width="90" height="25" as="geometry" />
        </mxCell>
        <mxCell id="4N1Lm0MANLfWKqpjn2IC-58" value="&lt;div style=&quot;text-align: center&quot;&gt;&lt;span&gt;Daily tracker&lt;/span&gt;&lt;/div&gt;" style="text;html=1;points=[];align=left;verticalAlign=top;spacingTop=-4;fontSize=14;fontFamily=Verdana;" vertex="1" parent="1">
          <mxGeometry x="1448" y="2732.5" width="97" height="30" as="geometry" />
        </mxCell>
        <mxCell id="4N1Lm0MANLfWKqpjn2IC-59" value="Calorie Diary" style="text;html=1;points=[];align=left;verticalAlign=top;spacingTop=-4;fontSize=14;fontFamily=Verdana" vertex="1" parent="1">
          <mxGeometry x="1760" y="2735" width="100" height="30" as="geometry" />
        </mxCell>
        <mxCell id="4N1Lm0MANLfWKqpjn2IC-61" value="My Recipe" style="text;html=1;strokeColor=#b85450;fillColor=#f8cecc;align=center;verticalAlign=middle;whiteSpace=wrap;rounded=0;fontSize=14;" vertex="1" parent="1">
          <mxGeometry x="2000" y="2735" width="80" height="25" as="geometry" />
        </mxCell>
        <mxCell id="4N1Lm0MANLfWKqpjn2IC-65" value="&lt;h1 style=&quot;font-size: 21px;&quot;&gt;&lt;span style=&quot;font-size: 21px; font-weight: normal;&quot;&gt;Chicken Noodle Soup&lt;/span&gt;&lt;br style=&quot;font-size: 21px;&quot;&gt;&lt;/h1&gt;&lt;p style=&quot;font-size: 21px;&quot;&gt;Hamburger&amp;nbsp;&lt;/p&gt;&lt;p style=&quot;font-size: 21px;&quot;&gt;Pizza&amp;nbsp;&lt;/p&gt;" style="text;html=1;strokeColor=none;fillColor=none;spacing=5;spacingTop=-20;whiteSpace=wrap;overflow=hidden;rounded=0;fontFamily=Comic Sans MS;fontSize=21;align=left;" vertex="1" parent="1">
          <mxGeometry x="1497" y="2940" width="385" height="200" as="geometry" />
        </mxCell>
        <mxCell id="4N1Lm0MANLfWKqpjn2IC-66" value="&lt;font size=&quot;1&quot;&gt;&lt;b style=&quot;font-size: 28px&quot;&gt;My Recipe&lt;/b&gt;&lt;/font&gt;" style="text;html=1;strokeColor=none;fillColor=none;align=center;verticalAlign=middle;whiteSpace=wrap;rounded=0;fontFamily=Comic Sans MS;fontSize=21;" vertex="1" parent="1">
          <mxGeometry x="1448" y="2810" width="290" height="100" as="geometry" />
        </mxCell>
      </root>
    </mxGraphModel>
  </diagram>
</mxfile>
